<?xml version="1.0" encoding="utf-8"?>
<!-- Generator: Adobe Illustrator 16.0.0, SVG Export Plug-In . SVG Version: 6.00 Build 0)  -->
<!DOCTYPE svg PUBLIC "-//W3C//DTD SVG 1.1//EN" "http://www.w3.org/Graphics/SVG/1.1/DTD/svg11.dtd">
<svg version="1.1" xmlns="http://www.w3.org/2000/svg" xmlns:xlink="http://www.w3.org/1999/xlink" x="0px" y="0px"
	 width="537.728px" height="310.207px" viewBox="0 0 537.728 310.207" enable-background="new 0 0 537.728 310.207"
	 xml:space="preserve">
<g id="addMenu">
</g>
<g id="addForm">
</g>
<g id="tempResponsive" display="none">
</g>
<g id="logo">
	<g>
		<path fill-rule="evenodd" clip-rule="evenodd" fill="#053E61" d="M380.921,178.045c-10.406-21.365-20.738-42.767-31.242-64.083
			c-7.719-15.661-15.703-31.19-23.471-46.828c-1.404-2.827-1.27-6.192-3.141-8.987c-1.777-2.655-3.246-6.1-6.633-6.126
			c-3.809-0.03-5.92,3.31-7.516,6.505c-3.932,7.878-7.805,15.785-11.657,23.701c-9.579,19.688-19.148,39.381-28.693,59.084
			c-20.259,41.826-40.588,83.617-60.701,125.512c-7.564,15.758-18.241,27.862-35.271,33.684
			c-10.639,3.638-21.297,2.677-32.182,1.836c-12.766-0.986-24.809-4.404-36.566-8.995c-27.307-10.665-50.809-26.329-67.77-50.987
			c-7.077-10.289-14.365-20.557-19.025-32.001c-4.001-9.827-7.089-20.2-9.264-30.783c-2.027-9.862-2.242-19.868-2.671-29.731
			c-0.56-12.864,0.876-25.856,5.849-38.107c1.813-4.468,2.441-9.271,4.376-13.805c4.146-9.717,8.917-19.072,14.24-28.15
			c6.026-10.28,13.055-19.82,21.967-27.855C66.279,28.647,82.655,18.03,101.254,10.96c5.229-1.987,10.246-4.831,15.64-6.024
			c8.292-1.837,16.792-3.26,25.261-3.676c28.796-1.415,57.629-0.361,86.445-0.586c4.765-0.037,11.543,5.211,12.199,8.986
			c1.678,9.646-0.937,17.016-7.109,19.668c-4.297,1.846-8.697,2.977-13.514,2.936c-19.332-0.17-38.676,0.344-57.994-0.188
			c-20.734-0.571-40.073,4.266-58.604,13.038C78.303,57.08,59.68,75.723,48.075,101.209c-8.235,18.087-10.599,37.08-9.387,56.859
			c0.939,15.357,3.814,30.036,10.233,44.04c10.349,22.578,25.897,40.413,47.606,52.696c12.98,7.344,26.762,12.679,41.529,14.791
			c14.629,2.092,28.697,0.407,38.04-12.701c5.058-7.096,8.47-15.383,12.467-23.214c14.138-27.692,28.618-55.222,42.196-83.187
			c15.522-31.971,32.627-63.133,47.943-95.201c2.334-4.887,5.02-9.607,7.539-14.4c-0.002,0.004,0.358-0.061,0.358-0.061
			l-0.047-0.358c0.511-0.87,1.021-1.739,1.528-2.604c2.057-1.322,2.617-3.379,2.748-5.645c0.475-0.763,0.949-1.525,1.424-2.285
			c-0.001,0.005,0.345-0.175,0.345-0.175l-0.036-0.407c3.48-7.811,5.895-16.197,12.211-22.467
			c10.119-10.047,26.363-9.398,33.682,3.87c6.725,12.191,12.688,24.807,18.848,37.304c14.662,29.74,29.258,59.513,43.84,89.293
			c4.662,9.52,9.191,19.104,13.783,28.661c-3.67,1.511-7.23,3.427-11.033,4.446C396.081,172.563,389.14,177.248,380.921,178.045z"/>
		<path fill-rule="evenodd" clip-rule="evenodd" fill="#66AB4F" d="M380.921,178.045c8.219-0.797,15.16-5.482,22.973-7.58
			c3.803-1.02,7.363-2.936,11.033-4.446c20.639-7.366,40.863-15.704,60.869-24.678c20.766-9.315,41.086-19.487,61.33-29.978
			c1.492,2.151-0.09,2.889-1.541,3.697c-35.342,19.738-70.016,40.666-106.004,59.252c-2.707,1.398-5.871,2.315-7.814,5.002
			c-8.57,2.779-15.941,7.977-23.859,12.056c-2.822,1.454-6.508,1.807-8.266,5.08c-3.178,0.464-6.344,0.949-7.75,4.479
			c-1.689,0.063-3.172,0.529-4.08,2.107c-2.395-1.223-4.229,0.504-6.031,1.41c-15.756,7.922-31.818,15.143-48.484,20.921
			c-4.17,1.446-4.729,3.401-3.373,7.312c4.566,13.176,8.729,26.49,13.293,39.666c1.184,3.418,0.713,5.469-2.406,7.465
			c-6.439,4.12-12.73,8.487-18.926,12.969c-2.502,1.812-3.83,1.589-5.484-1.069c-9.139-14.676-18.417-29.266-27.682-43.862
			c-5.971-9.408-11.865-18.869-18.075-28.116c-2.408-3.586-1.377-4.515,2.319-5.438c33.857-8.453,67.375-18.087,100.401-29.39
			c1.566-0.536,3.063-1.284,4.592-1.933c1.873-0.532,3.746-1.066,5.619-1.602C376.046,180.313,378.853,179.997,380.921,178.045z"/>
		<path fill-rule="evenodd" clip-rule="evenodd" fill="#053E61" d="M389.642,196.45c1.758-3.273,5.443-3.626,8.266-5.08
			c7.918-4.079,15.289-9.276,23.859-12.056c18.127,37.135,36.225,74.283,54.4,111.393c4.1,8.372,1.924,12.095-7.525,11.976
			c-6.65-0.084-13.316,0.525-19.949-0.445c-5.248-0.768-9.447-3.157-11.801-8.013C421.106,261.65,405.384,229.045,389.642,196.45z"
			/>
		<path fill-rule="evenodd" clip-rule="evenodd" fill="#053E61" d="M373.573,181.369c-1.873,0.535-3.746,1.069-5.619,1.603
			c-12.182-24.895-24.844-49.567-36.354-74.767c-6.32-13.84-13.406-27.279-19.797-41.066c-0.6-1.293-1.814-2.473,0.434-3.539
			c1.779-0.844,2.832-1.049,3.883,1.104c6.422,13.145,13.006,26.211,19.488,39.327c2.719,5.501,5.27,11.085,7.98,16.59
			C353.565,140.879,363.575,161.121,373.573,181.369z"/>
		<path fill-rule="evenodd" clip-rule="evenodd" fill="#053E61" d="M377.812,203.037c0.908-1.578,2.391-2.045,4.08-2.107
			c11.543,21.639,21.732,43.941,32.393,66.014c5.27,10.912,10.805,21.698,16.252,32.524c1.236,2.456,3.227,4.22,5.686,5.393
			c1.771,0.846,3.346,1.538,1.859,3.976c-1.445,2.371-2.869,1.105-4.506,0.353c-5.387-2.477-7.9-7.496-10.52-12.224
			c-3.375-6.094-6.355-12.424-9.213-18.784C402.454,252.834,389.813,228.089,377.812,203.037z"/>
		<path fill-rule="evenodd" clip-rule="evenodd" fill="#66AB4F" d="M290.831,32.225c-0.131,2.266-0.691,4.322-2.748,5.645
			C288.268,35.628,289.077,33.696,290.831,32.225z"/>
		<polygon fill-rule="evenodd" clip-rule="evenodd" fill="#66AB4F" points="292.563,29.357 292.599,29.765 292.254,29.939 
			292.15,29.551 		"/>
		<polygon fill-rule="evenodd" clip-rule="evenodd" fill="#66AB4F" points="286.554,40.474 286.601,40.832 286.243,40.893 
			286.21,40.52 		"/>
	</g>
</g>
</svg>
